<svg xmlns="http://www.w3.org/2000/svg" width="218" height="83" fill="none" viewBox="0 0 218 83">
    <path fill="#fff" fill-rule="evenodd" d="M199.349 20.182h-5.425v.309h.073c.554.08.871.634.871 1.4v18.7c0 .792-.317 1.33-.871 1.406l-.073.014v.318h5.425v-.318l-.06-.014c-.559-.075-.866-.614-.866-1.407V21.892c0-.767.307-1.308.866-1.401h.06v-.309zm-31.625 0h-6.619v.309h.072c.598.093.868.634.868 1.4v18.7c0 .798-.27 1.33-.868 1.406l-.072.014v.318h5.388v-.318l-.071-.014c-.596-.075-.855-.608-.855-1.407v-.051l-.007-8.258.181-.004c.07 0 .169-.007.281 0l.175.004c.061 0 .127-.004.195 0 .526 0 1.172.016 1.526.026.3.294.543.678.805 1.26 1.27 2.785 3.067 7.18 3.487 8.322l.74.44h4.327v-.375l-.085-.01a1.403 1.403 0 0 1-.802-.404c-.536-.492-1.535-2.83-2.432-4.923a65.099 65.099 0 0 0-1.542-3.375c-.698-1.316-1.295-1.67-1.598-1.98l-.13-.045c.55-.27 1.467-.795 2.069-1.409.975-1.048 1.544-2.483 1.544-4.079 0-1.636-.647-3.193-1.719-4.16-.979-.904-2.712-1.387-4.858-1.387zm-15.626-.321l-.083.006-2.895.572-.007.045c-.417 1.699-4.117 16.542-5 20.127-.198.778-.542 1.308-1.143 1.386l-.093.014v.318h4.063v-.318l-.082-.014c-.453-.056-.715-.395-.728-.916 0-.145.019-.303.054-.47l1.255-5.197h5.249l.145.56c.563 2.177.934 3.638 1.196 4.595v.021l.013.025c.043.139.058.243.102.343.04.183.066.346.066.487 0 .313-.125.513-.462.552l-.064.014v.318h5.143v-.318l-.074-.014c-.637-.075-.895-.608-1.102-1.407l-.026-.051a8942.044 8942.044 0 0 0-5.4-20.504c-.04-.146-.049-.174-.127-.174zM46.823 15.852h-7.505v.348h.09c.643.1.927.672.927 1.532v22.724c0 .848-.284 1.433-.928 1.53h-.09v.343h6.025v-.343h-.09c-.67-.083-.942-.675-.942-1.53V30.233h.199l.094.005a344.582 344.582 0 0 1 2.209.017h.417c.337.332.66.779 1.028 1.56 1.486 3.28 3.611 8.415 4.187 9.927l1.11.567v.02h4.62v-.343c-.23-.042-.728-.202-.98-.466-.654-.607-1.897-3.525-3.037-6.194a58.174 58.174 0 0 0-1.775-3.821c-.826-1.583-1.448-2.005-1.853-2.36-.071-.047-.133-.047-.204-.13.67-.325 1.753-.935 2.487-1.72 1.302-1.375 1.814-3.222 1.814-4.836 0-2.016-.784-3.83-2.018-4.962-1.196-1.05-3.224-1.645-5.785-1.645zm161.265 4.33c.079 0 .194.078.252.17.097.178 6.129 12.31 6.724 13.463V21.84c-.039-.75-.359-1.255-.949-1.348h-.099v-.309H218v.309h-.08c-.603.093-.868.634-.868 1.4V42.33h-1.732s-7.469-15.157-8.172-16.604l-.029-.06v14.946c0 .778.354 1.31.934 1.386l.078.014v.318h-4.042v-.318l.071-.014c.596-.078.867-.608.867-1.407V21.892c0-.767-.341-1.308-.938-1.401h-.077v-.309h4.076zm-129.452 0c.101 0 .178.049.21.14L83.7 33.674l4.608-13.32c.042-.122.133-.171.224-.171h3.555v.309h-.07c-.583.08-.772.464-.772 1.055 0 .105.004.224.016.346l.015.076h-.015l1.714 18.847c.092.684.288 1.107.896 1.182l.077.014v.318h-5.1v-.318l.08-.014c.437-.06.537-.323.537-.743 0-.187-.02-.408-.048-.664v-.051l-1.109-13.195-.12-1.424-.11.352c-.07.179-.13.383-.13.383l-4.823 14.92c-.041.08-.057.12-.126.12-.104 0-.104-.064-.14-.12-.9-2.575-5.148-14.48-5.49-15.449l-.015-.045-.05.818s-.534 10.742-.686 13.64h.01l-.01.051-.007.22c0 .678.244 1.112.821 1.187l.076.014v.318h-3.954v-.318l.086-.014c.642-.078.923-.608.991-1.407v-.051l1.099-18.57h-.006l.006-.077.017-.346c-.007-.59-.197-.974-.782-1.055H74.9v-.309h3.737zm44.179-4.295c.113 0 .2.057.266.18l5.924 16.643.025-.048 5.706-16.583c.044-.135.124-.192.251-.192h3.938v.34l-.075.013c-.578.074-.813.516-.822 1.207l.009.308.007.07h-.007l1.751 22.821c.122.743.475 1.257 1.091 1.331l.075.009v.343h-5.792v-.343l.084-.009c.48-.065.599-.41.599-.935 0-.177-.011-.373-.029-.586v-.071l-1.117-15.771-.143-1.768-.1.36-.163.496-5.949 17.778c-.048.095-.06.15-.152.15-.081 0-.09-.055-.129-.13l-6.758-18.494-.038.657-.702 16.722h.001l-.001.071c-.009.083-.014.16-.009.235 0 .72.309 1.207.883 1.286l.089.009v.343h-4.425v-.343l.079-.009c.65-.074 1.025-.624 1.098-1.438l.015-.087.01-.013 1.197-22.614h-.012l.012-.07.011-.234c0-.73-.251-1.203-.832-1.281l-.09-.014v-.34h4.224zm-22.983 4.295v.309h-.08c-.257.047-.359.187-.356.404 0 .245.132.591.316.997l.03.076h-.011l3.447 7.505.029.085c.205-.518 2.608-5.916 3.288-7.607l.022-.011.037-.107c.104-.263.159-.495.154-.683-.004-.368-.201-.598-.59-.66l-.07-.006v-.302h4.18v.302l-.08.007c-.618.08-.879.464-1.211 1.1-.046.095-.098.221-.162.345l-.023.015c-.252.617-3.733 8.266-4.538 10.158v8.481c0 .8.195 1.33.851 1.407l.085.014v.318h-5.398v-.318l.08-.014c.647-.081.859-.608.859-1.407v-.051h.012v-8.14l-.057-.118-4.82-10.683c-.305-.622-.481-1.014-1.097-1.107h-.073v-.309h5.176zm-32.244-5.681l-2.737 5.03h1.185l3.972-5.03h-2.42zm121.77 7.793l.219.011c.751.063 1.054.436 1.21.813l.042.107h.016l.277-.063-.013-.058-.68-2.765c-.013-.083-.116-.157-.189-.157h-12.73c-.083 0-.18.074-.185.157l-.681 2.765-.005.058.29.063.053-.107c.161-.413.507-.813 1.415-.824h3.492l.046.015c.05.023.091.084.102.15v18.08h-.005v.051c0 .749-.208 1.326-.857 1.407l-.078.014v.318h5.559v-.318l-.074-.014c-.653-.078-.868-.608-.868-1.407V22.471c0-.094.075-.177.165-.177h3.479zm-120.813 9.56l.146.01c.382.044.69.269.806.737l.021.08h.305v-3.705h-.305l-.02.064c-.13.53-.501.76-.953.76h-4.241v-7.38c0-.099.065-.165.168-.172h.118l.145.004h.813c.082 0 .162 0 .25.003h3.085c.653 0 1.027.164 1.27.743l.016.066.325-.017-.012-.04-.358-2.668c0-.083-.088-.157-.185-.157H59.807v.309h.073c.638.093.858.62.858 1.4v18.7c0 .798-.22 1.325-.858 1.406l-.073.014v.318h10.946c.092-.02.17-.091.17-.177l.324-2.689v-.03l-.316-.032-.008.075c-.268.676-.825.9-1.812.9h-3.62c-1.112-.005-1.187-.142-1.187-.814v-7.539c0-.087.065-.169.168-.169h4.074zm81.413-6.858c-.012.066-.022.083-.022.083s-.995 4.175-1.997 8.265h4.205c-.578-2.163-1.267-4.888-2.148-8.215l-.038-.133zm17.073-2.98h-.444c-1.008.097-1.027.13-1.027.937v7.373c.296.009.564.012.824.012 1.242 0 2.153-.14 2.915-.678.208-.16.429-.362.604-.585.455-.675.708-1.731.708-3.073 0-1.027-.355-2.284-.877-2.938-.384-.528-.934-.832-1.737-.965a3.413 3.413 0 0 0-.652-.076l-.314-.007zM46.1 17.906l-.474.01c-1.256.09-1.316.145-1.316 1.215v8.94l.787.009c1.655 0 2.812-.146 3.755-.816a2.57 2.57 0 0 0 .798-.762c.591-.87.879-2.192.879-3.717 0-1.304-.473-2.825-1.062-3.572-.474-.645-1.14-1.031-2.123-1.214a6.055 6.055 0 0 0-.845-.082l-.4-.011zm161.019 7.76V40.61 25.666z" clip-rule="evenodd"/>
    <path fill="url(#a)" d="M22.685 3.068c-.123 0-.62.537-.62.537-.22.175-1.406 1.644-1.406 1.644-.572.576-1.58 1.923-1.59 1.94 0-.009-.706.633-.706.633l-1.018 1.061c-.301.261-.514.74-.702 1.374-.626.347-1.136.977-1.428 1.774-.251.315-.65.562-1.032.799-.657.419-1.32.85-1.397 1.747-.217.085-.393.233-.57.375l-.294.22c-.15.105-.18.01-.25-.045a9.23 9.23 0 0 0 .292-.42.453.453 0 0 0 .049-.196c0-.188-.148-.363-.33-.464l-.011-.11a.323.323 0 0 0-.13-.246l.02-.035-.003-.014c0-.125-.06-.16-.115-.182l-.045-.026v-.005c0-.026.025-.062.083-.133.05-.071.107-.144.107-.226 0-.015 0-.022-.009-.037l-.132-.123c1.518-2.476 5.173-8.471 5.173-8.471a.49.49 0 0 1 .19-.329c.24-.242.248-.626.255-.665.01-.052-.003-.125-.003-.125l-.133.028a.837.837 0 0 0-.558.509.556.556 0 0 1-.21.33s-5.144 8.319-5.2 8.422c-.14-.027-.135-.076-.16-.204a.51.51 0 0 0-.28-.305c-.153-.064-.577-.115-.827-.292l-.034-.022-.029.015c-.116.027-.085.05-.164-.064-.069-.109-.15-.235-.311-.25l-.22.031c-.11.058-.243.058-.372.058h-.067c-.23-.003-.464.02-.62.298a.984.984 0 0 0-.097 0c-.37.014-.522.328-.66.614-.09.188-.18.384-.34.487a.857.857 0 0 0-.283.667c.003.129-.022.393-.009.43l-.023.232c-.021.061.021.223.021.304.005.094.04.177.097.245.012.531.41.85.79 1.108.206.466.607.552 1.001.64 0 0 .014.035.096.055l-5.616 9.097-.015-.01v.001s-.005-.002 0-.002c0-.001.011-.017-.053-.025-.074-.012-.16.044-.16.044l-.236.116c-.235.06-.272.142-.286.334l-.25.07c-.179.07-.213.302-.213.302-.09 0-.213.14-.278.335l-.082.415a.5.5 0 0 0 .082.288c-.022.056-.037.133-.037.133.015.124.127.15.154.167L.569 29.45 0 30.386s-.003.145.19.267c.204.117.332.045.332.045l.57-.958s.858-1.357.915-1.457l.23.17c.183.065.383.15.685-.089.11-.086.396-.316.688-.478.277-.268.47-.35.661-.422.157-.06.309-.127.486-.28.464-.536 1.173-.92 1.918-1.3 0 0 .678-.236.975-.523.297-.267.578-.693.578-.693.576-.598 1.116-1.174 1.803-1.602l.011-.008c.272-.183.48-.438.67-.69.135-.159.264-.32.422-.462a4.17 4.17 0 0 0 .255-.21.727.727 0 0 1 .157-.107c.173-.092.4-.148.54-.14.454-.01.88.064 1.32.147.568.101 1.151.21 1.818.122.312.057.523.288.77.563l.1.109c0 .02-.077.201-.097.26-.022.056-.003.195-.075.266a.599.599 0 0 0-.178.304c-.151.892-.534 1.453-1.103 2.066-.928 1.053-2.196 1.407-3.422 1.744-.992.273-2.025.562-2.877 1.218l-.353.287c-.312.273-.55.477-1 .579-.25.037-.482-.052-.723-.144-.226-.086-.46-.18-.724-.174l-.266-.01c-.39.01-1.143.098-1.787.616-.857.695-1.49 2.132-1.412 3.047l.03.27.023.27c.065.373.174.708.277 1.026.131.388.312 1.078.321 1.12.023.123-.043.189-.043.189.035.05.104.049.156.048h.077c.032-.002.065-.013.1-.017l.063-.007.342.744c.24.536.473 1.087.885 1.549.044.076.095.108.147.114h.037c.047-.012.099-.038.13-.054 0 0 .057-.014.08-.03l.591.884c.503.693 1.026 1.42 1.043 2.303 0 .102-.008.21-.017.318-.09.437-.594 1.023-1.017 1.174 0 0 0 .116.027.173a.54.54 0 0 0 .29.24c.097.027.194.04.291.044h.149a1.84 1.84 0 0 0 1.12-.493c.291-.028 1.245-.534 1.462-1.327 0 0 .077-.333.1-.424.013-.01.03-.013.06-.01.123.007.38.079.553.124l.608.155c.368-.006.624.25.903.525.345.339.697.681 1.236.5.105.036.148.098.15.19 0 .057-.01.13-.024.217l-.032.29v.026c.003.111.096.174.16.21.059.03.081.054.081.08l-.004.012c-.08.074-.113.15-.113.217 0 .107.077.211.134.294l.116.205.034.031c.26.082.508.12.748.13h.169c.458-.018.852-.184 1.137-.478l.038-.039-.01-.036a2.754 2.754 0 0 0-.286-.695l-.018-.016-.023-.014c-.093-.034-.115-.115-.15-.234-.037-.11-.07-.226-.17-.31-.518-.23-.843-.703-1.143-1.163l-.082-.116c.382.027.754.236.993.437a.537.537 0 0 0 .203.075h.062a.93.93 0 0 0 .339-.136c.115-.064.22-.122.334-.122.072.015.123.048.142.08l-.02.21a.715.715 0 0 0-.042.222.27.27 0 0 0 .103.207c.012.16.058.292.169.393.249.246.717.257.968.252h.064c.325-.01.774-.079.923-.484l.008-.03-.008-.027a6.166 6.166 0 0 0-.519-.903l-.012-.016-.023-.007c-.204-.072-.345-.323-.446-.588l-.028-.044h-.048c-.268-.014-.45-.195-.643-.392-.194-.208-.396-.408-.698-.45l-.767-.125c-.776-.105-1.511-.218-1.921-.911a1.313 1.313 0 0 1-.076-.377 1.047 1.047 0 0 1 .168-.582l.1-.119c.844-.99 1.57-1.849 1.667-3.093l-.054-.5c-.02-.152-.037-.27-.038-.378-.005-.18.05-.301.22-.347l.35-.015c1.436-.04 3.154-.258 4.49-1.01 1.347-.709 2.354-1.518 3.577-3.545l.367.133c.282.082.711.192.953-.153.135-.453.408-.85.647-1.229l.142-.202c.363-.607.483-1.322.62-2.005.308-.425.468-.94.623-1.438.11-.365 0-.88.171-1.21.262-.408.72-.76.954-.915.096.119.44.314.55.35.111.033.2.064.26.164.02.034.028.055.028.086.004.092-.077.166-.204.27-.121.093-.268.206-.265.39v.046l.034.014c.052.053.083.104.083.16.003.058-.03.122-.081.22a.605.605 0 0 0-.1.33c0 .002 0 .02.004.029v.014l.013.017c.563.88 1.165 1.418 1.785 1.612l.073.033.138-.424c.058-.171.063-.362.072-.549.002-.26.004-.512.182-.69l.03-.037-.165-.795c-.108-.432-.21-.873-.217-1.346l.006-.216c-.102-.479-.274-.678-.603-.85.528-.421 1.122-.863 1.795-1.021.373-.076.402-.303.4-.51l-.007-.143c-.005-.14.018-.252.112-.34a.1.1 0 0 1 .08-.028c.042 0 .095.025.172.062.26.149.392-.01.517-.133l.071-.08c.872.083 1.102-.496 1.314-1.053l.106-.28c.069-.166.205-.575.072-.787l-.021-.046-.051.005c-.403.023-1.241.43-1.241.43l-.06.036-.184-.029c-.278 0-.559.183-.81.353l-.293.192c-.79.222-1.428.802-2.055 1.375-.477.418-.954.846-1.503 1.125.437.157.9.202 1.16.483.044.061.114.3.16.352-.338-.352-1.638-.588-1.812-.628l-.528-.12c-.677.381-1.514.974-1.834 1.704-.093.395-.248 1.203-.301 1.445-.07.346-.204 1.181-.35 1.457-.164-.576-.828-1.776-.828-1.776s-.796-.944-.896-1.332c-.1-.366-.474-.956-.808-1.228-.397-.218-.562-.574-.744-.949-.175-.403-.367-.818-.844-1.067l-.104-.252c-.278-.655-1.554-1.491-1.554-1.491l-.025-.008c-.474-.101-.623-.415-.762-.745l-.086-.173a1.562 1.562 0 0 1-.04-.324c-.014-.665.406-1.215.835-1.797 0 0 1.103-1.11 1.41-2.032 0-.008.423-.595.423-.604.666-.609.715-1.239.993-2.032.131-.412.114-.279.346-.64.55-.908.743-1.177.954-1.234l.09-.036c.14-.082.304-.165.406-.556.008-.007.095-.343.095-.343l.086-.269c.2-.264.346-.536.384-.74l.002-.042a.268.268 0 0 0-.08-.192c-.023-.014-.04-.014-.072-.025l.138-.177c.104-.136.31-.36.305-.53-.015-.249-.172-.289-.257-.297l-.041-.004zm-.95 2.228c.318-.512.366-.409.23-.208l-.242.538c-.066.247-.562.347-.841.403a.636.636 0 0 0-.252.068c-.07.018-.152-.052-.038-.233.123-.17.212-.207.507-.115a.152.152 0 0 0 .05.006c.19 0 .44-.228.586-.46zm-1.944 1.85c.317-.164.564-.377.729-.465.08-.049.263-.156.376-.255.304-.033-.175.376-.41.765-.237.363-.366 1.006-.554 1.398-.232.53-.49 1.156-1.207 1.513-.463.568-.324.95-1.926 2.868a2.987 2.987 0 0 0-.705 1.468c-.982.317-1.088-1.472-1.013-1.617.092-.214.379-.394.864-.863.503-.472 1.763-.895 1.578-1.097-.025-.264-.117-.612.041-1.034.547-.96 1.91-1.345 2.29-2.011.099-.18.637-.657-.076-.356a.403.403 0 0 1-.151.032c-.119 0-.166-.09.164-.345zM9.119 13.612c.123-.006.128-.238.114-.42a.742.742 0 0 1 .167-.486c.125-.145.27-.286.62-.278.2.053.285.074.393.203-.016.062-.087.057-.154.048-.049-.003-.097-.01-.104.017-.021.08.175.26-.002.382-.157.11-.365-.015-.365-.137-.127.084-.147.338-.176.556 0 0-.071.652.51.429.06-.069-.764 1.263-1.162 1.928-.372-.084-.938.091-1.117-.325l-.025-.026c-.927-.168-.801-.73-.801-.73l-.005-.05c-.09-.076-.121-.163-.063-.264l-.203-.136c-.028-.057-.01-.24-.006-.25-.063-.2-.055-.169.002-.132.048.026.116.05.202-.027-.036.155.029-.16.112-.191.174-.05.178.076.252.232.062.158-.078-.349.204-.397.279-.046.401-.004.399-.227-.003-.102-.052-.092-.112-.081-.068.014-.142.027-.148-.153-.01-.256.11-.186.173-.186.244.004.11.285.345.212.55-.188.296.186.543.226.37.041.284.263.397.263h.01zm1.098 3.339a2.449 2.449 0 0 0-.51-.776c-.075-.065-.045-.022-.2-.099l1.378-2.211c.061-.018.21 0 .325.012.045.01.054.088-.06.333-.039.09.117.076.29.065.085-.009.175-.014.246-.009.078.13.03.366-.057.525l-.137.172c-.083.08-.263.3-.32.532-.06.38-.008 1.084.057 1.448.07.367.582-.228.91-.297.883-.171.275.274-.034.404-.322.133-.477.523-.78.604-.235.062-.733.272-.943.42.033-.179-.042-.842-.165-1.123zm7.743 1.236c-.141-.174-.403-.17-.796-.25-.36-.08-.473-.086-.852-.402-.529-.457-.707-.468-1.11-.546-.398-.067-.968-.44-1.011-.483-.194-.208-.077-.338.227-.21.3.127.174.068.524.032.81-.102 1.075.186 1.119.504.064.412.232.332.446.289a.716.716 0 0 1 .66.195c.348.358.413.259.818.535.152.107.277.18.305.301.03.156.02.252-.047.252-.055 0-.148-.062-.283-.217zM9.11 16.714c.298.089.771.205.875.529.103.317.02.647-.057.939-.286.346-.68.601-1.09 1.3-.207.22-.067 1.02-.658 1.55-.94.845-.794 2.263-2.02 2.62-.673.241-1.928 2.071-1.984 2.09l-.62.012c1.605-2.619 5.25-8.49 5.554-9.04zM4.16 26.703h.117c.132 0 .214-.013.334-.146.041-.047.312-.508.46-.644.48-.45 2.01-1.002 2.475-2.047.017-.054.51-.024.798-.28.414-.358.41-.255.785-.75.648-.865.552-.902.996-1.194.256-.505.179-1.156-.084-1.51-.245-.326-.146-.475.537-.789.82-.377 2.043-.064 2.923-.56.047-.03.065-.06.065-.096 0-.068-.035-.154.07-.258.127-.152.296-.015.46-.154.424-.367 1.02-.722.424.393-.12.255.458.09 1.15.28.478.137.044.699 1.192.842.174.022.177.354.357.396.194.037.573.053 1.18-.159.555-.183.405.162.187.298-.164.107-.551.261-.93.526-.333.24-.276.243.124.155.407-.084.42.123.153.32-.229.153-.241.153-.481.37-.181.158-.128.218.14.207.357-.024 1.04-.383 1.353-.499.312-.113.675 0 .166.231a4.268 4.268 0 0 0-1.172.774c-.33.214-.354.563-.921 1.17-.225.23-.594.504-.789.504-.422.01.179-1.37.17-1.54a1.894 1.894 0 0 0-.07-.373c.319-.747-.601-.962-1.017-1.042-.65.069-1.787-.156-2.342-.265-1.639-.328-2.69 1.572-3.68 2.447 0 0-.912.734-1.494 1.348l-1.365.92c-.27.147-1.594 1.146-1.788 1.371-.15.133-.28.181-.43.24-.201.078-.42.17-.705.449-.687.37-1.093.292-1.268.222 0 0-.297-.173-.394-.285-.102-.113.058-.31.072-.436.007-.098.007-.141.08-.227 0 0 .059-.148.149-.232.09-.08.188-.216.259-.302.058-.07.023-.128.142-.175-.026.119.045.181.202.326.313.32.45.353.651.215.075-.056.245-.051.458-.046.066.001.141.005.216.005h.085zm15.268-7.367c-.171-.128-.322-.435-.612-.515-.3-.073-.236-.186-.037-.202.306-.026.624.125.74.202l.04.035c.06.112.113.224.179.325v.063c-.01.077-.064.148-.157.148a.27.27 0 0 1-.153-.056zm8.756.77c0 .004.003.004.005.008-.003-.003-.005-.004-.006-.008zm-5.775 7.1c-.112-.093-.268-.49-3.224-.529-1.498-.046-1.824-.753-1.877-.934-.227-.538-.207-.498-.488-.785-.161-.167-.172-.316.296-.145.89.326 1.47 1.228 2.266 1.374.356.063.567.161.187-.163-.363-.31-.534-.482-.847-.749-.197-.129-.27-.248.153-.135.423.105 1.7.325 2.6.846.877.616.515.317.982.748.466.43.779.166 1.152-.517.242-.425.875-1.246.948-1.317.034-.02.029-.065.029.015-.018.282-.575 1.355-.675 1.5-.258.394-.316.37-.54.793-.14.269-.29.362-.431.362-.215 0-.41-.22-.531-.364zm-.616.878c-.826 1.569-2.918 4.31-8.241 4.157-.755-.537-1.515-.723-1.902-.928-.242-.124-.335.197-.309.714.012.3-.174.624-.392.667-.123-.062-.148.035-.25-.335-.139-.518-.056-.631-.708-.87-.451-.158-.504-.686-.287-1.012.318.51.5.644.883.828.048-.176-.067-.288-.245-.54-.072-.1-.162-.447.293-.45.415 0 .964-.054 1.764.378.345.175.903.58 2.33.793l.345.005c1.056 0 4.185-.217 6.719-3.407zM4.85 30.023c.036-.093.623-.54 1.714-.518l.108.005c.563.07.91.664.577 1.42-.723 1.46.477 2.325 1.293 2.39 1.143.093.808.585 1.767.99.447.18 1.044.267 1.545.274-.17.08-.371.16-.681.17h-.113c-.3-.007-.7-.06-1.26-.21a.258.258 0 0 0-.096-.021c-.262-.01-.534.224-.219.58.329.38 1.01.73 1.369.763-.2.43-.588.857-.674.977-.463.604-2.036 1.633-2.125 1.705-.608.471-.204.718.178.77.614.093.885.106 1.34.241 1.137.604.807.727 1.244 1.079.694.575 1.687.362 1.9.975.223.623-.096.301-.236.574-.029.06-.05.118-.074.175.006-.07.026-.254.026-.254.01-.07.028-.15.028-.232a.411.411 0 0 0-.28-.392s-.27.043-.37.05h-.073c-.197-.014-.35-.125-.595-.29-.317-.22-.595-.65-.999-.66h-.03.054l-.483-.101c-.36-.107-1.08-.612-1.297-.612-.03-.004-.05.004-.058.016l.052.554s.022.177-.036.515c-.055.343-.556 1.114-1.351 1.13.353-.262.743-.69.735-1.198-.015-.86-.231-1.003-.332-.996-.022 0-.039.005-.045.014 0-.541-.09-2.114-.327-2.717a4.492 4.492 0 0 0-.564-1.038l.141.123c1.072 1.022.788 2.342.98 2.109l.75-.682c.302-.475.716-1.126.546-1.897-.206-.72-.694-.99-1.173-1.569l-.9-.9c-.444-.655-.466-1.569-.134-2.425.037-.11.102-.333.102-.495.093-.444-.144-.573-.49-.573-.479 0-1.14.253-1.366.253-.062 0-.09-.02-.068-.072zm1.025 4.99c-.11-.1-.134-.226-.16-.385l-.057-.245c0-.016-.233-.355-.233-.355-.154-.197-.285-.394-.323-.634l.082-.046.188-.167c.012-.06.012-.133.012-.18-.004-.252-.092-.47-.182-.679l-.173-.495a1.845 1.845 0 0 1-.016-.23c-.007-.428.13-.716.408-.888a.918.918 0 0 1 .478-.142c.114 0 .213.02.291.05.104.049.128.131.128.193a.177.177 0 0 1-.006.056c-.15.392-.218.793-.212 1.174.01.508.15.992.415 1.39l.7.91c.474.566.958 1.148 1.157 1.831.021.108.037.21.037.315.01.449-.19.858-.446 1.279-.324-.964-1.004-1.862-2.088-2.752zm3.415 3.267c.181-.24 1.143-.734 1.413-.915.685-.48 1.785-1.14 2.25-2.046-.145.435-.465 1.051-1.099 1.795l-.103.13c-.133.226-.943.688-.856 1.293.456.773 1.857.94 2.63 1.057 0 0 1.047.135 1.267.508.143.246.397.194.698.228.114.265.26.51.493.614.158.226.262.364.42.713.08.371-.818.375-1.037.153-.083-.086-.114-.288-.074-.45.034-.1.069-.222.009-.336-.04-.07-.407-.444-.54-.474-.18-.001-.318.073-.44.147-.176.096-.282.16-.423.067-.44-.344-.86-.307-1.249-.278l-.359.041c-.764-.656-2.188-1.116-2.46-1.466-.138-.173-.193-.276.04-.483.051-.041-.083-.142-.21-.08a1.042 1.042 0 0 1-.37.118.453.453 0 0 1-.087.01c-.22 0 .019-.246.087-.346z"/>
    <path fill="#fff" d="M82.401.279h.962v7.126h3.829v.763h-4.79V.278zM93.588 5.268h3.146l-1.573-3.886-1.573 3.886zm1.127-4.99h.904l3.252 7.89h-.986l-.869-2.16h-3.698l-.869 2.16h-.986l3.252-7.89zM110.006.279h.952l2.886 3.944L116.745.28h.952v7.89h-.905V1.617l-2.665 3.627h-.565l-2.652-3.627v6.55h-.903V.278h-.001zM124.68 5.268h3.146l-1.574-3.886-1.572 3.886zm1.127-4.99h.904l3.252 7.89h-.986l-.869-2.16h-3.698l-.869 2.16h-.986l3.252-7.89zM135.924.279h-.962v7.89h.962V.278zM141.145 2.114c0-.313.066-.599.197-.857s.317-.482.557-.67c.241-.187.531-.332.872-.434A3.885 3.885 0 0 1 143.892 0c.791 0 1.633.176 2.524.528l-.234.753c-.798-.33-1.538-.494-2.22-.494-.563 0-1.017.122-1.362.364-.344.243-.516.563-.516.963 0 .352.114.624.341.816.228.191.515.348.86.469.345.122.716.234 1.112.335.396.102.767.24 1.112.411.345.172.632.403.859.693.228.29.342.68.342 1.173 0 .321-.068.616-.205.88-.137.267-.33.495-.576.682a2.824 2.824 0 0 1-.887.44c-.344.106-.723.16-1.138.16-.853 0-1.789-.208-2.806-.624l.235-.75c.446.18.884.322 1.314.428a5.01 5.01 0 0 0 1.186.159c.587 0 1.053-.125 1.397-.376.345-.25.517-.583.517-.999 0-.359-.113-.639-.341-.84-.226-.199-.51-.36-.851-.487-.34-.125-.709-.238-1.109-.34a5.593 5.593 0 0 1-1.109-.404 2.508 2.508 0 0 1-.852-.675c-.226-.282-.34-.666-.34-1.15zM152.412 4.086c0 .485.072.929.218 1.332.145.404.346.752.604 1.045.258.294.565.52.922.681.356.161.75.242 1.18.242.43 0 .826-.08 1.185-.242.36-.16.67-.387.928-.68.258-.294.46-.642.605-1.046.144-.403.217-.847.217-1.332 0-.485-.073-.93-.217-1.333a3.215 3.215 0 0 0-.605-1.045 2.66 2.66 0 0 0-.928-.68 2.866 2.866 0 0 0-1.185-.241c-.43 0-.824.08-1.18.241-.357.16-.664.387-.922.68a3.213 3.213 0 0 0-.604 1.045 3.891 3.891 0 0 0-.218 1.333zm-.998 0c0-.595.099-1.143.294-1.644.196-.5.465-.933.81-1.297a3.562 3.562 0 0 1 1.239-.846c.481-.2 1.008-.299 1.579-.299s1.097.1 1.579.3c.481.199.895.482 1.244.845.349.364.618.796.81 1.297.192.501.288 1.05.288 1.644 0 .603-.096 1.152-.288 1.65a3.837 3.837 0 0 1-.81 1.29 3.633 3.633 0 0 1-1.243.846c-.483.2-1.009.3-1.58.3-.571 0-1.097-.1-1.579-.3a3.56 3.56 0 0 1-1.239-.845 3.964 3.964 0 0 1-.809-1.292 4.46 4.46 0 0 1-.295-1.65zM164.662.279h.951l4.801 6.55V.28h.904v7.89h-.951l-4.802-6.551v6.55h-.903V.278z"/>
    <path fill="#D39D43" d="M147.79 60.51h.951l2.887 3.946 2.9-3.945h.952v7.89h-.904V61.85l-2.665 3.627h-.565l-2.653-3.627v6.55h-.903v-7.89zM161.756 64.596c0 .486.072.93.218 1.333.145.403.346.751.604 1.045.258.294.565.52.922.68.356.162.75.242 1.18.242.43 0 .826-.08 1.186-.241.359-.16.669-.387.927-.681.258-.294.46-.642.605-1.045.144-.404.217-.847.217-1.333 0-.484-.073-.929-.217-1.332a3.215 3.215 0 0 0-.605-1.045 2.666 2.666 0 0 0-.927-.68 2.874 2.874 0 0 0-1.186-.242c-.43 0-.824.08-1.18.242-.357.16-.664.386-.922.68a3.213 3.213 0 0 0-.604 1.045 3.892 3.892 0 0 0-.218 1.332zm-.998 0c0-.594.099-1.142.294-1.643.196-.5.465-.934.81-1.298a3.563 3.563 0 0 1 1.239-.845c.481-.2 1.008-.3 1.579-.3s1.097.1 1.579.3c.481.2.895.482 1.244.845.349.364.618.797.81 1.298a4.56 4.56 0 0 1 .288 1.643c0 .603-.096 1.153-.288 1.65a3.837 3.837 0 0 1-.81 1.291 3.627 3.627 0 0 1-1.244.846c-.482.2-1.008.299-1.579.299s-1.098-.1-1.579-.3a3.55 3.55 0 0 1-1.239-.845 3.966 3.966 0 0 1-.81-1.291 4.48 4.48 0 0 1-.294-1.65zM173.354 62.625c0-.313.067-.599.197-.857.132-.258.318-.482.558-.67.241-.187.531-.332.871-.434a3.897 3.897 0 0 1 1.122-.153c.79 0 1.632.176 2.524.528l-.234.752c-.799-.33-1.538-.493-2.22-.493-.564 0-1.017.122-1.362.364-.345.242-.517.563-.517.963 0 .352.115.624.342.816.228.191.515.348.859.468.346.123.717.235 1.113.336a5.61 5.61 0 0 1 1.112.41c.345.173.632.403.859.694.228.289.342.68.342 1.173 0 .321-.069.615-.205.88-.137.267-.33.494-.577.682a2.806 2.806 0 0 1-.886.44c-.345.106-.724.159-1.139.159-.853 0-1.788-.207-2.806-.623l.236-.75c.446.18.884.322 1.314.428.431.105.826.158 1.186.158.587 0 1.053-.125 1.397-.375.345-.251.517-.583.517-1 0-.358-.113-.638-.341-.839-.226-.2-.51-.361-.851-.487-.341-.125-.71-.238-1.11-.34a5.576 5.576 0 0 1-1.108-.405 2.498 2.498 0 0 1-.852-.675c-.227-.281-.341-.666-.341-1.15zM183.624 64.596c0-.603.094-1.154.283-1.655.188-.5.453-.932.797-1.291.345-.36.754-.64 1.227-.84.474-.2 1-.3 1.58-.3.454 0 .906.074 1.355.218.451.145.887.362 1.309.651l-.411.658a4.054 4.054 0 0 0-1.032-.54 3.322 3.322 0 0 0-1.093-.188c-.445 0-.854.08-1.227.24-.371.162-.69.386-.956.676-.266.29-.472.636-.617 1.039a3.916 3.916 0 0 0-.217 1.332c0 .486.072.93.217 1.333.145.403.351.75.617 1.039.266.29.585.515.956.675.373.16.782.24 1.227.24.368 0 .732-.061 1.093-.187a4.05 4.05 0 0 0 1.032-.54l.411.657c-.422.29-.858.507-1.309.652a4.384 4.384 0 0 1-1.355.217c-.58 0-1.106-.1-1.58-.3-.473-.199-.882-.479-1.227-.839a3.751 3.751 0 0 1-.797-1.291 4.653 4.653 0 0 1-.283-1.656zM195.496 64.596c0 .486.072.93.217 1.333.145.403.347.751.605 1.045.258.294.565.52.921.68.357.162.75.242 1.18.242.431 0 .826-.08 1.186-.241.36-.16.669-.387.928-.681.258-.294.46-.642.604-1.045.144-.404.217-.847.217-1.333 0-.484-.073-.929-.217-1.332a3.195 3.195 0 0 0-.604-1.045 2.67 2.67 0 0 0-.928-.68 2.87 2.87 0 0 0-1.186-.242c-.43 0-.823.08-1.18.242-.356.16-.663.386-.921.68-.258.293-.46.642-.605 1.045a3.916 3.916 0 0 0-.217 1.332zm-.998 0c0-.594.098-1.142.294-1.643.196-.5.465-.934.81-1.298a3.559 3.559 0 0 1 1.238-.845c.482-.2 1.008-.3 1.579-.3s1.098.1 1.579.3c.482.2.896.482 1.245.845.349.364.618.797.81 1.298a4.56 4.56 0 0 1 .288 1.643c0 .603-.096 1.153-.288 1.65a3.837 3.837 0 0 1-.81 1.291 3.622 3.622 0 0 1-1.245.846c-.481.2-1.008.299-1.579.299s-1.097-.1-1.579-.3a3.547 3.547 0 0 1-1.238-.845 3.966 3.966 0 0 1-.81-1.291 4.46 4.46 0 0 1-.294-1.65zM215.173 68.4h-.962l-2.055-6.692-2.042 6.692h-.963l-2.524-7.89h.975l2.053 6.693 2.043-6.692h.916l2.055 6.692 2.042-6.692h.987l-2.525 7.89zM164.242 74.733h.962v3.475h4.719v-3.476h.976v7.89h-.976v-3.65h-4.718v3.65h-.962v-7.889h-.001zM177.094 78.539c0 .485.072.929.217 1.332.146.404.347.752.605 1.045.258.295.565.521.922.681a2.83 2.83 0 0 0 1.18.242c.43 0 .826-.08 1.185-.242.36-.16.67-.386.928-.68.258-.294.46-.642.605-1.046.144-.403.217-.847.217-1.332 0-.485-.073-.93-.217-1.333a3.214 3.214 0 0 0-.605-1.045 2.66 2.66 0 0 0-.928-.68 2.866 2.866 0 0 0-1.185-.241c-.431 0-.824.08-1.18.241-.357.16-.664.387-.922.68a3.232 3.232 0 0 0-.605 1.045 3.915 3.915 0 0 0-.217 1.333zm-.998 0c0-.595.098-1.142.294-1.644.196-.5.465-.933.81-1.297a3.563 3.563 0 0 1 1.239-.846c.481-.2 1.008-.299 1.579-.299s1.097.1 1.579.3c.481.2.895.482 1.244.845.349.364.618.796.81 1.297.192.502.288 1.05.288 1.644 0 .603-.096 1.152-.288 1.65a3.838 3.838 0 0 1-.81 1.29 3.628 3.628 0 0 1-1.244.846c-.482.2-1.008.3-1.579.3s-1.098-.1-1.579-.3a3.552 3.552 0 0 1-1.239-.845 3.967 3.967 0 0 1-.81-1.292 4.46 4.46 0 0 1-.294-1.65zM196.043 79.606c0 .47-.086.897-.259 1.284-.172.388-.41.721-.715.999a3.246 3.246 0 0 1-1.086.645c-.42.153-.875.23-1.368.23a3.95 3.95 0 0 1-1.368-.23 3.16 3.16 0 0 1-1.08-.645 2.989 2.989 0 0 1-.71-.999 3.114 3.114 0 0 1-.259-1.284v-4.874h.962v4.838c0 .353.064.677.189.975.125.297.295.55.51.762.215.211.474.376.776.493.301.118.628.177.98.177s.679-.059.98-.177c.301-.117.561-.282.781-.493.219-.211.389-.465.511-.762.121-.298.182-.623.182-.975v-4.838h.974v4.874zM201.237 76.567c0-.313.066-.598.197-.857.132-.258.318-.482.558-.669a2.62 2.62 0 0 1 .871-.434 3.895 3.895 0 0 1 1.121-.154c.791 0 1.633.176 2.525.528l-.234.753c-.799-.33-1.538-.493-2.22-.493-.564 0-1.017.121-1.362.364-.345.242-.517.562-.517.962 0 .353.115.624.342.816.228.191.515.348.859.469.346.122.716.234 1.113.335.396.102.767.24 1.112.411.345.172.632.403.859.693.228.29.342.681.342 1.173 0 .321-.069.616-.205.88-.137.267-.33.495-.577.683a2.808 2.808 0 0 1-.886.439c-.345.107-.724.16-1.139.16-.853 0-1.789-.208-2.806-.624l.236-.75c.446.18.884.323 1.314.428.431.106.826.159 1.186.159.587 0 1.053-.125 1.397-.376.345-.25.516-.583.516-.999 0-.359-.112-.639-.34-.84-.226-.199-.51-.36-.851-.486-.341-.125-.71-.239-1.11-.34a5.589 5.589 0 0 1-1.108-.405 2.499 2.499 0 0 1-.852-.675c-.227-.282-.341-.666-.341-1.15zM212.068 74.732h5.037v.764h-4.075v2.735h3.699v.728h-3.699v2.912h4.262v.763h-5.224v-7.902z"/>
    <path fill="url(#b)" fill-rule="evenodd" d="M218 51.31H39.318v-.838H218v.838z" clip-rule="evenodd"/>
    <defs>
        <linearGradient id="a" x1="21.57" x2="5.431" y1="11.86" y2="49.419" gradientUnits="userSpaceOnUse">
            <stop stop-color="#D9AB52"/>
            <stop offset=".26" stop-color="#EAD39E"/>
            <stop offset=".52" stop-color="#EEDDA2"/>
            <stop offset="1" stop-color="#D39D43"/>
        </linearGradient>
        <linearGradient id="b" x1="39.318" x2="218" y1="336.569" y2="336.569" gradientUnits="userSpaceOnUse">
            <stop stop-color="#D9AB52"/>
            <stop offset=".26" stop-color="#EAD39E"/>
            <stop offset=".52" stop-color="#EEDDA2"/>
            <stop offset="1" stop-color="#D39D43"/>
        </linearGradient>
    </defs>
</svg>
