<svg xmlns="http://www.w3.org/2000/svg" width="138" height="82" fill="none" viewBox="0 0 138 82">
    <g fill-rule="evenodd" clip-path="url(#a)" clip-rule="evenodd">
        <path fill="#221E1F" d="M129.611 69.644v11.248-11.248zM5.263 63.833H4.88c-.987.053-1.042.106-1.042.906v6.717h.603c1.261 0 2.193-.106 2.906-.586.22-.16.438-.32.603-.587.439-.64.658-1.652.658-2.772 0-.96-.384-2.132-.823-2.665-.383-.48-.877-.8-1.644-.907-.22-.053-.439-.053-.658-.053l-.22-.053zm93.371 3.092h-.384c-.767.053-.767.106-.767.693V73.215h.658c.932 0 1.644-.106 2.248-.533a1.64 1.64 0 0 0 .438-.426c.329-.533.548-1.28.548-2.293 0-.746-.274-1.705-.657-2.185-.275-.373-.713-.64-1.316-.747-.165-.053-.33-.053-.494-.053l-.274-.053zm-13.158 2.239v.053s-.768 3.145-1.536 6.184h3.235c-.438-1.6-.987-3.678-1.645-6.184l-.054-.053zm-62.887 5.17h.11c.274.054.548.214.602.534v.053h.275V72.15h-.22v.053c-.11.374-.383.587-.712.587h-3.29v-5.544c0-.054.055-.107.11-.107h3.399c.493 0 .768.107.987.533v.053h.274v-.053l-.274-2.026c0-.053-.055-.106-.165-.106h-7.84v.213h.055c.493.053.658.48.658 1.066v14.02c0 .587-.165 1.014-.658 1.067h-.055v.213h8.443c.055 0 .11-.053.11-.106l.274-2.026h-.22v.053c-.218.48-.657.693-1.37.693h-2.796c-.877 0-.932-.106-.932-.586v-5.704c0-.054.055-.107.11-.107h3.125zm93.316-7.196h.164c.603.053.823.32.932.587l.055.106.219-.053v-.053l-.548-2.08c0-.053-.11-.106-.164-.106h-9.814c-.055 0-.165.053-.165.106l-.548 2.08v.053l.219.053.055-.106c.11-.32.384-.587 1.096-.64h2.742c.055 0 .055.053.055.106v13.701c0 .587-.165 1.013-.658 1.066h-.055v.213h4.276v-.213h-.054c-.494-.053-.658-.48-.658-1.066V67.298c0-.053.054-.107.109-.107h2.742v-.053zm-94.084-5.864l-2.138 3.785h.932l3.07-3.785h-1.864zm24.947 4.265v.213h-.055c-.22.053-.274.16-.274.32s.11.426.219.746v.053l2.686 5.651v.054c.165-.373 2.03-4.425 2.523-5.704v-.054c.054-.213.11-.373.11-.533 0-.266-.165-.426-.44-.48h-.054v-.213h3.235v.213h-.055c-.494.054-.658.373-.932.853-.055.054-.055.16-.11.267-.22.48-2.906 6.184-3.509 7.623v6.397c0 .587.164 1.013.658 1.067h.055v.213h-4.167v-.213h.055c.493-.054.658-.48.658-1.067V74.71l-.055-.108-3.728-7.996c-.22-.48-.384-.746-.823-.853v-.213h4.003zm17.709-3.199c.11 0 .164.053.22.107l4.55 12.528v-.054l4.386-12.474c.055-.107.11-.16.22-.16h3.015v.266h-.055c-.439.054-.603.373-.658.907v.266l1.37 17.166c.11.533.384.96.823 1.013h.055v.266h-4.386v-.266h.055c.383-.053.438-.32.438-.693v-.48l-.877-11.835-.11-1.333-.055.267-.11.373-4.605 13.328c-.055.053-.055.106-.11.106-.054 0-.054-.053-.109-.106l-5.209-13.914-.054.48-.549 12.58v.214c0 .533.22.906.658.96h.055v.266h-3.4v-.213h.056c.493-.053.767-.48.822-1.066v-.053l1.042-17.007v-.213c0-.533-.22-.906-.658-.96h-.055v-.266h3.235zM30.374 65.54c.055 0 .165.053.165.106l3.728 10.023 3.564-10.023c.055-.106.11-.106.164-.106h2.742v.213h-.055c-.439.053-.603.373-.603.8v.319l1.316 14.181c.054.533.219.853.712.906h.055v.213h-3.947v-.213h.054c.33-.053.439-.266.439-.533 0-.16 0-.32-.055-.48v-.106l-.822-9.916-.11-1.066-.11.266c-.054.16-.11.267-.11.267l-3.727 11.195c-.055.053-.055.107-.11.107s-.055-.054-.11-.107c-.712-1.92-4.002-10.875-4.222-11.621v-.054l-.054.587s-.439 8.05-.549 10.235v.213c0 .534.165.853.658.907h.055v.213h-3.07v-.213h.055c.493-.054.713-.48.767-1.067v.054l.823-13.968v-.319c0-.427-.165-.747-.603-.8h-.055v-.213h3.015zm100.005 0c.055 0 .165.053.219.106.055.107 4.715 9.223 5.209 10.13v-9.01c-.055-.587-.274-.96-.713-1.013h-.055v-.213h3.071v.213h-.055c-.439.053-.658.48-.658 1.066v15.353h-1.316s-5.757-11.408-6.305-12.474v-.053 11.248c0 .587.274.96.713 1.066h.055v.213h-3.126v-.213h.055c.439-.053.658-.48.658-1.066v-14.02c0-.587-.274-.96-.713-1.067h-.219v-.213h3.18v-.053zM5.812 62.287H0v.266h.055c.493.054.713.48.713 1.173v17.06c0 .64-.22 1.066-.713 1.172H0v.267h4.66v-.32h-.055c-.493-.053-.712-.48-.712-1.173V73.056H6.14c.274.266.493.586.822 1.172a174.602 174.602 0 0 1 3.235 7.464l.877.426h3.564v-.213c-.165-.053-.548-.16-.768-.373-.493-.48-1.48-2.666-2.357-4.638-.494-1.12-1.042-2.186-1.371-2.879-.658-1.173-1.097-1.493-1.425-1.76-.055-.052-.11-.052-.165-.106.493-.266 1.37-.693 1.919-1.28.987-1.012 1.426-2.398 1.426-3.624 0-1.493-.604-2.88-1.536-3.732-1.041-.746-2.577-1.226-4.55-1.226zm81.308 3.039h-.054l-2.248.426v.053c-.33 1.28-3.18 12.422-3.838 15.14-.165.587-.439.96-.877 1.067h-.055v.213h3.125v-.213h-.055c-.329-.054-.548-.32-.548-.693 0-.107 0-.214.055-.374l.986-3.891h4.058l.11.426c.438 1.653.712 2.719.931 3.465.055.107.055.16.055.267.055.16.055.266.055.373 0 .213-.11.373-.384.427h-.055v.213h3.948v-.213h-.055c-.493-.054-.713-.48-.822-1.067v-.053c-.932-3.572-3.893-14.34-4.167-15.407-.11-.16-.11-.16-.165-.16zm12.062.213h-5.099v.213h.055c.439.053.658.48.658 1.066v14.02c0 .587-.22 1.014-.658 1.067h-.055v.213h4.167v-.213h-.055c-.438-.053-.657-.48-.657-1.066v-6.184h1.809c.22.213.439.533.603.96.987 2.079 2.358 5.384 2.686 6.237l.549.32h3.344v-.267h-.055c-.164 0-.383-.107-.603-.32-.438-.373-1.206-2.132-1.864-3.678-.438-1.013-.877-1.973-1.206-2.56-.548-1.012-.987-1.279-1.261-1.492l-.11-.053c.439-.213 1.152-.587 1.59-1.066a4.343 4.343 0 0 0 1.206-3.04c0-1.225-.493-2.398-1.315-3.144-.713-.64-2.084-1.013-3.729-1.013zm24.453 0h-4.167v.213h.055c.439.053.658.48.658 1.066v14.02c0 .587-.219 1.014-.658 1.067h-.055v.213h4.167v-.213h-.055c-.438-.053-.657-.48-.657-1.066v-14.02c0-.587.219-.96.657-1.067h.055v-.213z"/>
        <path fill="url(#b)" d="M48.74 29.832c-.219.106-.273.373-.273.373-.11 0-.275.16-.384.426l-.11.533c0 .107 0 .267.11.373-.055.054-.055.16-.055.16 0 .16.164.214.22.214l-1.207 1.972-.768 1.226s0 .16.275.32c.274.16.438.053.438.053l.768-1.226s1.151-1.759 1.206-1.866l.329.214c.22.053.493.213.877-.107.165-.107.494-.426.932-.586.384-.32.603-.427.877-.533.22-.054.384-.16.658-.374.603-.693 1.535-1.172 2.522-1.652 0 0 .878-.32 1.261-.64.384-.32.768-.906.768-.906.768-.747 1.48-1.493 2.358-2.026.329-.213.603-.586.877-.906.164-.213.329-.427.548-.587.11-.106.22-.16.33-.266.054-.054.109-.107.218-.107.22-.107.549-.213.713-.16.603 0 1.151.107 1.755.213.767.107 1.535.267 2.412.16.384.054.713.373.987.693l.11.16s-.11.267-.11.32c-.055.053 0 .267-.11.32-.11.053-.164.213-.22.373-.218 1.12-.712 1.866-1.425 2.666-1.206 1.332-2.905 1.812-4.495 2.239-1.316.373-2.687.693-3.783 1.546l-.44.373c-.383.373-.712.586-1.315.746-.329.054-.658-.053-.932-.16-.274-.106-.603-.213-.932-.213H53.4c-.494 0-1.48.107-2.358.8-1.151.906-1.973 2.719-1.864 3.891l.055.374.055.373c.11.48.22.906.384 1.333.164.48.383 1.386.438 1.439.055.16-.054.213-.054.213.054.107.219.053.274.053h.274l.438.96c.33.693.604 1.386 1.152 1.973.055.106.11.16.22.16h.054c.055 0 .11-.054.164-.054 0 0 .055 0 .11-.053l.768 1.12c.657.906 1.37 1.812 1.37 2.931v.427c-.11.586-.767 1.333-1.316 1.492 0 0 0 .16.055.214.055.106.274.266.384.32.11.053.274.053.384.053h-.11a2.634 2.634 0 0 0 1.48-.64c.384-.053 1.645-.693 1.92-1.706 0 0 .11-.426.11-.533h.054c.165 0 .493.107.713.16l.822.213c.494 0 .822.32 1.206.693.439.427.932.853 1.645.64.165.053.22.107.22.267 0 .053 0 .16-.055.266l-.055.373v.054c0 .16.11.213.22.266.054.054.109.054.109.107-.11.106-.165.213-.165.266 0 .16.11.267.165.374l.164.266.055.053c.329.107.658.16.987.16h.22c.602 0 1.096-.213 1.48-.586l.054-.053v-.054c-.11-.32-.219-.64-.383-.906h-.055c-.11-.053-.165-.16-.22-.32a.855.855 0 0 0-.219-.373c-.658-.267-1.096-.906-1.48-1.493l-.11-.16c.494.054.987.32 1.316.587.11.053.165.106.274.106h.055c.164 0 .329-.106.439-.16.164-.106.274-.16.438-.16.11 0 .165.054.165.107v.053c0 .054 0 .16-.055.214-.055.106-.055.213-.055.266 0 .107.055.16.11.267 0 .213.055.373.219.48.329.32.932.32 1.261.32h.11c.438 0 1.041-.107 1.206-.64v-.107a7.668 7.668 0 0 0-.658-1.173h-.055c-.274-.106-.438-.426-.603-.746l-.055-.053h-.055c-.329 0-.603-.267-.822-.48-.274-.267-.548-.533-.932-.587l-.987-.16c-1.042-.16-1.974-.266-2.522-1.172-.055-.16-.11-.32-.11-.48 0-.267.055-.533.22-.746l.11-.16c1.096-1.28 2.083-2.346 2.192-3.945l-.054-.64c0-.213-.055-.32-.055-.48 0-.213.055-.373.274-.426h.438c1.865-.054 4.167-.32 5.922-1.28 1.754-.906 3.125-1.919 4.715-4.531l.493.16c.384.107.932.266 1.261-.213.165-.587.549-1.067.878-1.6l.164-.266c.494-.8.658-1.706.823-2.56.383-.532.603-1.225.822-1.865.165-.48 0-1.12.22-1.546.328-.533.931-.96 1.26-1.173.11.16.603.427.713.427.165.053.274.106.329.213 0 .053.055.053.055.107 0 .106-.11.213-.274.32-.165.106-.33.266-.33.48v-.16h.056c.054.053.11.106.11.213 0 .053-.056.16-.11.266-.055.107-.165.267-.11.427v.053c.713 1.12 1.535 1.812 2.358 2.079l.11.053.164-.533c.055-.213.11-.48.11-.693 0-.32 0-.64.219-.906l.054-.053-.219-1.013a5.855 5.855 0 0 1-.274-1.706v-.267c-.11-.586-.384-.853-.768-1.066.713-.533 1.48-1.12 2.358-1.28.493-.106.548-.373.548-.64v-.16c0-.16 0-.319.165-.426.055-.053.055-.053.11-.053.054 0 .109.053.219.107.329.213.493 0 .658-.16l.11-.107c1.15.107 1.425-.64 1.754-1.333l.164-.373c.11-.213.274-.746.11-1.013l-.055-.053h-.055c-.548.053-1.645.533-1.645.533l-.054.053h-.22c-.383 0-.713.214-1.041.427l-.384.267c-1.042.266-1.864 1.012-2.687 1.759-.603.533-1.26 1.066-1.974 1.44.549.212 1.207.266 1.536.639.054.106.164.426.219.48-.439-.48-2.138-.747-2.412-.8-.22-.053-.384-.053-.604-.107h-.054c-.878.48-1.974 1.226-2.413 2.186-.11.48-.329 1.546-.384 1.866-.11.426-.274 1.493-.493 1.866-.22-.747-1.097-2.293-1.097-2.293s-1.041-1.226-1.206-1.706c-.11-.48-.603-1.226-1.041-1.546-.549-.266-.768-.746-.987-1.226-.22-.533-.494-1.066-1.097-1.386l-.11-.32c-.383-.852-2.028-1.919-2.028-1.919h-.055c-.603-.106-.822-.533-.987-.96l-.11-.213c-.054-.16-.054-.266-.054-.426 0-.853.548-1.546 1.096-2.292 0 0 1.426-1.44 1.864-2.613l.549-.746c.877-.8.932-1.6 1.315-2.612.165-.533.165-.373.439-.8.713-1.173.987-1.492 1.261-1.6l.11-.052c.164-.107.383-.214.548-.693l.11-.427.11-.32c.273-.32.438-.693.493-.96V1.95c0-.106-.055-.16-.11-.266-.055 0-.055 0-.11-.054l.11-.48c.11-.16.384-.48.384-.692 0-.32-.22-.374-.33-.374h-.054c-.164 0-.822.694-.822.694-.275.213-1.865 2.079-1.865 2.079-.767.746-2.083 2.452-2.083 2.505l-.932.8-1.316 1.333c-.384.32-.658.96-.932 1.759-.822.426-1.48 1.226-1.864 2.292-.329.427-.877.693-1.37 1.013-.878.533-1.755 1.066-1.865 2.24-.274.106-.548.319-.767.479l-.384.266c-.22.107-.22 0-.33-.053.275-.373.33-.426.385-.533.054-.107.054-.16.054-.267 0-.266-.219-.48-.438-.586v-.16c0-.107-.055-.213-.165-.32v-.053c0-.16-.054-.213-.164-.213l-.055-.054c0-.053.055-.053.11-.16.055-.106.164-.16.164-.266v-.053l-.164-.16C63.38 9.467 68.204 1.79 68.204 1.79c.055-.213.11-.266.274-.426.33-.32.33-.8.33-.853v-.16s-.11 0-.165.053c-.055 0-.548.16-.713.64a.94.94 0 0 1-.274.427s-6.799 10.662-6.853 10.768c-.165-.053-.165-.106-.22-.266-.054-.16-.164-.32-.383-.373-.22-.054-.768-.16-1.097-.374l-.055-.053h-.055c-.164.053-.11.053-.219-.107-.11-.16-.22-.32-.384-.32h-.11c-.054 0-.11 0-.219.054-.164.053-.329.053-.493.053h-.11c-.274 0-.603.053-.822.373h-.11c-.493 0-.713.427-.877.8-.11.267-.22.48-.439.64-.274.213-.383.533-.383.853 0 .16-.055.48 0 .533v.426c0 .053.054.267.054.373 0 .107.055.214.11.32 0 .693.548 1.067 1.042 1.44.274.586.822.693 1.316.8 0 0 0 .053.11.053l-7.403 11.675c-.054 0 0 0 0 0s.055 0-.054-.054c-.11 0-.22.053-.22.053l-.329.16c-.329.054-.438.16-.438.374l-.274.16zm22.315-9.81c.384-.053.823.16.987.267l.055.053c.055.16.165.267.22.427v.053c0 .16-.165.267-.384.107-.22-.16-.44-.533-.823-.64-.384-.107-.329-.267-.055-.267zm2.413-16.366c.164-.213.274-.266.658-.16.274.054.603-.266.822-.586.439-.64.494-.533.274-.267l-.329.693c-.11.32-.713.427-1.096.534-.055 0-.22 0-.33.106-.054 0-.164-.053 0-.32zm-7.292 8.903c.11-.266.493-.533 1.151-1.12.658-.586 2.303-1.172 2.084-1.386-.055-.32-.165-.8.054-1.332.713-1.226 2.522-1.706 3.016-2.56.11-.212.822-.852-.11-.479-.22.107-.603.053 0-.373.439-.213.768-.48.932-.587.11-.053.33-.213.494-.32.383-.053-.22.48-.549.96-.329.48-.493 1.28-.712 1.813-.33.693-.658 1.492-1.59 1.919-.603.746-.439 1.226-2.522 3.678a3.783 3.783 0 0 0-.932 1.866c-1.261.427-1.426-1.866-1.316-2.079zm-.877 4.478c.383.16.219.107.712.053 1.042-.106 1.426.214 1.48.64.11.533.33.427.604.373.329-.053.712.054.877.267.439.426.548.32 1.096.693.22.16.384.213.384.373.055.373-.055.48-.438.053-.165-.213-.549-.213-1.042-.32-.494-.106-.603-.106-1.097-.533-.712-.586-.932-.586-1.48-.693-.548-.106-1.261-.586-1.316-.64-.329-.266-.164-.426.22-.266zm-4.66-3.145h.438c.055 0 .055.106-.055.426-.055.16.439.054.713.054.11.16.054.48-.055.693l-.165.213c-.11.106-.329.373-.438.693-.055.48 0 1.386.055 1.866.11.48.767-.267 1.206-.373 1.151-.214.384.373-.055.533-.439.16-.658.693-1.042.8-.329.053-.987.32-1.26.532.054-.213-.056-1.066-.22-1.439-.165-.373-.384-.746-.658-1.013-.11-.106-.055-.053-.274-.106l1.81-2.88zm-4.003 2.132c-1.261-.266-1.097-.96-1.097-.96v-.053c-.11-.106-.164-.213-.055-.32l-.274-.16c-.055-.053 0-.32 0-.32-.164-.426 0 0 .274-.213-.054.214.055-.213.165-.266.22-.053.22.107.329.32.11.213-.11-.427.274-.533.384-.054.548 0 .548-.267s-.329.107-.329-.32c0-.32.165-.213.22-.213.329 0 .164.373.438.267.713-.214.384.266.713.266.493.053.384.373.548.32.165 0 .165-.32.165-.533 0-.213.11-.48.219-.64.164-.16.329-.373.822-.373.275.053.384.107.494.267-.055.16-.33 0-.33.106 0 .107.22.32 0 .48-.218.16-.492 0-.492-.16-.165.107-.22.427-.22.693 0 0-.11.853.658.533.055-.107-.987 1.6-1.535 2.452-.548-.053-1.261.16-1.535-.373zm1.7 1.546c.383.107 1.041.267 1.15.693.11.427 0 .853-.054 1.226-.384.427-.877.747-1.425 1.653-.275.267-.11 1.333-.878 1.973-1.26 1.066-1.041 2.878-2.686 3.358-.877.32-2.522 2.666-2.632 2.666h-.822a10589.5 10589.5 0 0 0 7.346-11.569zm-9.157 12.741c.11-.106.274-.266.33-.373.054-.106.054-.16.164-.213-.055.16.054.213.274.426.438.427.603.427.877.267.165-.107.548-.053.987-.053.274 0 .384.053.603-.16.055-.054.384-.64.603-.853.603-.587 2.632-1.28 3.235-2.612 0-.054.658 0 1.042-.374.548-.48.548-.32 1.041-.96.878-1.119.713-1.172 1.316-1.545.33-.64.22-1.493-.11-1.92-.328-.426-.219-.586.713-1.012 1.097-.48 2.687-.107 3.838-.747.055-.053.11-.053.11-.106 0-.107-.055-.213.11-.32.164-.213.383 0 .603-.213.548-.48 1.37-.907.548.48-.164.32.603.106 1.535.373.658.16.055.906 1.59 1.066.22.053.22.48.439.533.274.053.767.053 1.535-.213.713-.213.548.213.22.373-.22.16-.714.32-1.207.693-.439.32-.384.32.165.213.548-.107.548.16.219.427-.274.213-.33.213-.658.48-.22.213-.165.266.164.266.494-.053 1.371-.48 1.755-.64.438-.16.877 0 .22.32a4.613 4.613 0 0 0-1.536 1.013c-.439.267-.439.746-1.206 1.493-.274.32-.768.64-1.042.64-.548 0 .22-1.76.22-1.973 0-.213-.11-.48-.11-.48.438-.96-.768-1.226-1.316-1.333-.877.107-2.358-.213-3.07-.32-2.139-.426-3.564 2.026-4.825 3.146 0 0-1.206.96-1.974 1.706l-1.81 1.173c-.328.16-2.083 1.492-2.357 1.759-.22.16-.384.213-.548.32-.274.106-.548.213-.932.586-.932.48-1.426.373-1.645.267 0 0-.384-.214-.494-.373-.11-.16.055-.374.11-.534 0-.106 0-.16.11-.32-.055-.053 0-.266.164-.373zm5.702 8.637l.932 1.172c.603.747 1.261 1.493 1.535 2.346.055.16.055.267.055.427 0 .586-.274 1.12-.603 1.652-.438-1.226-1.316-2.399-2.741-3.518-.165-.107-.165-.267-.22-.48l-.054-.32-.33-.426c-.218-.267-.383-.48-.438-.8l.11-.053.274-.214v-.213c0-.32-.11-.586-.22-.853l-.219-.64v-.266c0-.533.165-.906.549-1.12.219-.16.438-.16.658-.16.164 0 .274 0 .383.054.11.053.165.16.165.266v.054c-.22.48-.274 1.012-.274 1.492-.055.48.11 1.12.438 1.6zm7.786 11.461c0-.106.055-.32.055-.32 0-.106.054-.213.054-.32 0-.16-.11-.373-.383-.48 0 0-.33.054-.494.054h-.11c-.274 0-.438-.16-.767-.373-.439-.267-.822-.853-1.37-.853h.054l-.658-.107c-.493-.16-1.425-.8-1.7-.8h-.054l.055.694s.054.213-.055.64c-.055.426-.713 1.439-1.755 1.439.439-.32.987-.906.987-1.546 0-1.12-.329-1.28-.439-1.28h-.054c0-.693-.11-2.718-.439-3.465-.11-.266-.329-.8-.767-1.333l.164.16c1.425 1.333 1.042 2.986 1.316 2.72l.987-.854c.384-.586.932-1.44.713-2.452-.275-.906-.933-1.28-1.536-2.026l-1.206-1.173c-.603-.853-.603-2.025-.164-3.092.054-.16.11-.426.11-.64.109-.586-.165-.746-.659-.746-.822 0-2.028.533-1.864.213.055-.106.823-.693 2.248-.64h.165c.712.107 1.206.854.767 1.813-.932 1.866.603 2.986 1.7 3.039 1.48.107 1.041.746 2.303 1.28.603.213 1.37.32 2.028.373-.22.106-.493.213-.877.213h-.164c-.384 0-.933-.053-1.645-.267h-.11c-.329 0-.713.267-.274.747.438.48 1.316.96 1.81.96a6.325 6.325 0 0 1-.878 1.225c-.603.8-2.687 2.08-2.796 2.186-.823.586-.274.906.219.96.823.106 1.151.16 1.755.32 1.48.8 1.041.906 1.644 1.386.932.746 2.248.48 2.522 1.28.275.799-.11.372-.329.745-.054.16-.054.214-.11.32zm-.713-6.717l-.165.16c-.164.267-1.26.906-1.096 1.653.603 1.013 2.467 1.226 3.454 1.332 0 0 1.37.16 1.645.64.164.32.548.267.932.267.164.32.329.64.658.8.22.266.329.48.548.906.11.48-1.096.48-1.37.213-.11-.107-.165-.373-.11-.586.055-.107.11-.267 0-.427-.055-.107-.548-.586-.713-.586-.22 0-.438.106-.603.213-.22.106-.384.213-.548.106-.603-.426-1.152-.373-1.645-.373l-.439.054c-.987-.853-2.906-1.44-3.235-1.866-.164-.214-.274-.373.055-.64.055-.053-.11-.16-.274-.107a2.6 2.6 0 0 1-.493.16c-.494.107-.11-.266 0-.426.219-.32 1.48-.96 1.864-1.173.877-.64 2.357-1.44 2.96-2.612-.164.533-.603 1.333-1.425 2.292zm2.193-6.237c-.987-.693-1.974-.906-2.522-1.173-.329-.16-.439.267-.384.906 0 .373-.22.8-.493.853-.165-.053-.165.054-.33-.426-.164-.64-.054-.8-.931-1.12-.603-.213-.658-.853-.384-1.28.439.64.658.8 1.151 1.067.055-.213-.11-.373-.329-.693-.11-.107-.219-.586.384-.586.549 0 1.261-.054 2.303.48.439.213 1.206.746 3.07 1.012.439 0 5.428.427 9.32-4.371-1.04 2.026-3.837 5.49-10.855 5.33zM77.8 29.992c-.329.48-.439.48-.713 1.012-.493.853-.987.32-1.26 0-.165-.106-.33-.64-4.222-.693-1.974-.053-2.413-.96-2.468-1.172-.274-.694-.274-.64-.658-1.013-.219-.214-.219-.427.384-.16 1.152.426 1.92 1.546 2.96 1.759.494.053.769.213.22-.213-.493-.373-.713-.64-1.096-.96-.275-.16-.33-.32.219-.16.548.16 2.248.427 3.454 1.066 1.151.8.658.427 1.316.96.603.533 1.042.213 1.535-.64.33-.533 1.151-1.6 1.261-1.706.055 0 .055-.106.055 0-.11.373-.823 1.706-.987 1.92z"/>
    </g>
    <defs>
        <linearGradient id="b" x1="74.236" x2="53.965" y1="11.138" y2="59.652" gradientUnits="userSpaceOnUse">
            <stop stop-color="#D9AC53"/>
            <stop offset=".059" stop-color="#DAAE57"/>
            <stop offset=".12" stop-color="#DDB463"/>
            <stop offset=".182" stop-color="#E2BF78"/>
            <stop offset=".245" stop-color="#E8CE94"/>
            <stop offset=".264" stop-color="#EAD49E"/>
            <stop offset=".521" stop-color="#EFDEA3"/>
            <stop offset=".601" stop-color="#E7CB86"/>
            <stop offset=".701" stop-color="#DFB768"/>
            <stop offset=".801" stop-color="#D9A953"/>
            <stop offset=".901" stop-color="#D5A147"/>
            <stop offset="1" stop-color="#D49E43"/>
        </linearGradient>
        <clipPath id="a">
            <path fill="#fff" d="M0 0h138v82H0z"/>
        </clipPath>
    </defs>
</svg>
